<svg xmlns="http://www.w3.org/2000/svg" xmlns:xlink="http://www.w3.org/1999/xlink" width="500" zoomAndPan="magnify" viewBox="0 0 375 374.999991" height="500" preserveAspectRatio="xMidYMid meet" version="1.0"><defs><clipPath id="c80fecfa30"><path d="M 69 65.5 L 341.433594 65.5 L 341.433594 371.5 L 69 371.5 Z M 69 65.5 " clip-rule="nonzero"/></clipPath><clipPath id="e0ae5b3d28"><path d="M 33.269531 5 L 320 5 L 320 326 L 33.269531 326 Z M 33.269531 5 " clip-rule="nonzero"/></clipPath></defs><g clip-path="url(#c80fecfa30)"><path fill="#a5edf5" d="M 69.5625 344.097656 L 69.5625 92.957031 C 69.5625 71.902344 92.328125 58.734375 110.542969 69.273438 L 327.773438 194.839844 C 345.988281 205.367188 345.988281 231.691406 327.773438 242.21875 L 110.542969 367.792969 C 92.328125 378.320312 69.5625 365.164062 69.5625 344.097656 " fill-opacity="1" fill-rule="nonzero"/></g><g clip-path="url(#e0ae5b3d28)"><path fill="#001d4a" d="M 67.777344 19.5 C 64.308594 19.5 60.851562 20.410156 57.699219 22.242188 C 51.390625 25.882812 47.632812 32.410156 47.632812 39.703125 L 47.632812 290.84375 C 47.632812 298.132812 51.390625 304.664062 57.699219 308.3125 C 64.003906 311.953125 71.535156 311.953125 77.84375 308.3125 L 295.085938 182.738281 C 301.390625 179.085938 305.152344 172.558594 305.152344 165.265625 C 305.152344 157.988281 301.390625 151.460938 295.085938 147.808594 L 77.84375 22.242188 C 74.6875 20.410156 71.234375 19.5 67.777344 19.5 Z M 67.777344 325.449219 C 61.851562 325.449219 55.925781 323.886719 50.515625 320.761719 C 39.722656 314.515625 33.269531 303.335938 33.269531 290.84375 L 33.269531 39.703125 C 33.269531 27.207031 39.722656 16.03125 50.515625 9.78125 C 61.324219 3.546875 74.21875 3.535156 85.023438 9.78125 L 302.265625 135.359375 C 313.0625 141.59375 319.515625 152.785156 319.515625 165.265625 C 319.515625 177.761719 313.0625 188.949219 302.265625 195.1875 L 85.023438 320.761719 C 79.625 323.886719 73.703125 325.449219 67.777344 325.449219 " fill-opacity="1" fill-rule="nonzero"/></g></svg>